# xmcd
#
# Track frame offsets: 
#        183
#        17100
#        30863
#
# Disc length: 629 seconds
#
# Revision: 2
# Processed by: cddbd v1.4PL0 Copyright (c) Steve Scherf et al.
# Submitted via: ExactAudioCopy v0.90b4
#
DISCID=14027303
DTITLE=The Righteous Brothers - You've Lost That Lovin' Feelin' (EP)
DYEAR=1991
DGENRE=
TTITLE0=You've Lost That Lovin' Feelin' (1964)
TTITLE1=You're My Soul And Inspiration (1965)
TTITLE2=Unchained Melody (1966)
EXTD=
EXTT0=
EXTT1=
EXTT2=
PLAYORDER=
